<?xml version="1.0" encoding="UTF-8"?>
<!DOCTYPE svg PUBLIC "-//W3C//DTD SVG 1.1//EN" "http://www.w3.org/Graphics/SVG/1.1/DTD/svg11.dtd">
<svg xmlns="http://www.w3.org/2000/svg" version="1.1" width="232px" height="239px" style="shape-rendering:geometricPrecision; text-rendering:geometricPrecision; image-rendering:optimizeQuality; fill-rule:evenodd; clip-rule:evenodd" xmlns:xlink="http://www.w3.org/1999/xlink">
<g><path style="opacity:0.992" fill="#1dd65f" d="M 231.5,103.5 C 231.5,113.833 231.5,124.167 231.5,134.5C 221.664,187.173 190.664,220.006 138.5,233C 85.64,240.811 44.4733,222.644 15,178.5C 7.11092,164.66 1.94425,149.993 -0.5,134.5C -0.5,124.167 -0.5,113.833 -0.5,103.5C 9.33616,50.827 40.3362,17.9936 92.5,5C 145.358,-2.81186 186.525,15.3548 216,59.5C 223.889,73.3404 229.056,88.007 231.5,103.5 Z"/></g>
<g><path style="opacity:1" fill="#010301" d="M 80.5,63.5 C 115.005,61.4452 148.338,66.6119 180.5,79C 185.833,81.6667 191.167,84.3333 196.5,87C 201.732,92.9666 201.732,98.9666 196.5,105C 194.361,106.404 192.028,107.237 189.5,107.5C 145.164,85.346 98.831,80.1793 50.5,92C 37.8992,93.3368 33.3992,87.8368 37,75.5C 41.5589,71.0847 47.0589,68.5847 53.5,68C 62.6166,66.364 71.6166,64.864 80.5,63.5 Z"/></g>
<g><path style="opacity:1" fill="#010301" d="M 77.5,103.5 C 108.291,101.684 137.958,106.517 166.5,118C 170.993,120.079 175.326,122.412 179.5,125C 186.412,131.167 186.079,136.833 178.5,142C 176.167,142.667 173.833,142.667 171.5,142C 142.586,125.9 111.586,119.567 78.5,123C 68.7636,124.683 59.0969,126.349 49.5,128C 43.9752,125.081 42.1419,120.581 44,114.5C 45.1667,113.333 46.3333,112.167 47.5,111C 57.4345,107.743 67.4345,105.243 77.5,103.5 Z"/></g>
<g><path style="opacity:1" fill="#010301" d="M 79.5,141.5 C 105.453,139.493 130.453,143.326 154.5,153C 159.761,155.545 164.594,158.712 169,162.5C 170.378,170.122 167.211,173.622 159.5,173C 135.027,158.973 108.693,153.64 80.5,157C 71.1186,158.346 61.7853,159.679 52.5,161C 48.7885,158.487 47.6218,154.987 49,150.5C 49.3742,149.584 49.8742,148.75 50.5,148C 60.1173,145.009 69.784,142.842 79.5,141.5 Z"/></g>
</svg>
